HIERARCHY
ROOT Hips
{
	OFFSET 0.00000 0.00000 0.00000
	CHANNELS 6 Xposition Yposition Zposition Yrotation Zrotation Xrotation 
	JOINT Lumbar
	{
		OFFSET 0 0 0
		CHANNELS 3 Zrotation Xrotation Yrotation
		JOINT Neck
		{
			OFFSET 0.00 0.2701 0.00
			CHANNELS 3 Zrotation Xrotation Yrotation
			End Site
			{
				OFFSET 0.00 0.1379 0.00
			}
		}
		JOINT RightShoulder
		{
			OFFSET 0.0119 0.2289 0.1181
			CHANNELS 3 Zrotation Xrotation Yrotation
			JOINT RightElbow
			{
				OFFSET 0.00 -0.1475 0.00
				CHANNELS 2 Zrotation Yrotation
				JOINT RightWrist
				{
					OFFSET 0.00 -0.1605 0.00
					CHANNELS 2 Zrotation Xrotation
					End Site
					{
						OFFSET 0.0040 -0.1068 0.0006
					}
				}
			}
		}
		JOINT LeftShoulder
		{
			OFFSET 0.0119 0.2289 -0.1181
			CHANNELS 3 Zrotation Xrotation Yrotation
			JOINT LeftElbow
			{
				OFFSET 0.00 -0.1475 0.00
				CHANNELS 2 Zrotation Yrotation
				JOINT LeftWrist
				{
					OFFSET 0.00 -0.1605 0.00
					CHANNELS 2 Zrotation Xrotation
					End Site
					{
						OFFSET 0.0040 -0.1068 -0.0006
					}
				}
			}
		}
	}
	JOINT RightHip
	{
		OFFSET 0.0316 -0.0424 0.0458
		CHANNELS 3 Zrotation Xrotation Yrotation
		JOINT RightKnee
		{
			OFFSET 0.00 -0.2438 0.00
			CHANNELS 1 Zrotation
			JOINT RightAnkle
			{
				OFFSET 0.00 -0.2449 0.00
				CHANNELS 3 Zrotation Xrotation Yrotation
				End Site
				{
					OFFSET 0.1237 -0.0542 0.0051
				}
			}
		}
	}
	JOINT LeftHip
	{
		OFFSET 0.0316 -0.0424 -0.0458
		CHANNELS 3 Zrotation Xrotation Yrotation
		JOINT LeftKnee
		{
			OFFSET 0.00 -0.2438 0.00
			CHANNELS 1 Zrotation
			JOINT LeftAnkle
			{
				OFFSET 0.00 -0.2449 0.00
				CHANNELS 3 Zrotation Xrotation Yrotation
				End Site
				{
					OFFSET 0.1237 -0.0542 -0.0051
				}
			}
		}
	}
}
MOTION
Frames: 11
Frame Time: 0.02
0.0013 0.00024 0.00078 179.00452 -40.34744 -2.23562 46.53116 2.73041 -6.18246 12.46033 0.56113 -0.83594 12.99934 -13.92181 18.0066 34.83436 84.19432 1.94444 -1.43897 27.65854 7.2719 -22.88871 37.67084 -81.60615 -2.45946 0.24707 45.09678 -0.16879 2.84842 -19.36794 -6.9246 -4.32511 -2.95974 48.86207 1.93898 -2.37816 -25.22364 -6.78636 3.59101 2.51155
0.00136 0.00025 0.00068 178.94621 -40.34136 -2.23928 46.51278 2.72534 -6.00575 12.34522 0.61937 -0.83594 12.56275 -13.86496 18.17973 34.87933 84.27093 2.11339 -1.43559 27.14213 7.21625 -23.04649 38.64908 -81.68218 -2.30749 0.29009 45.10494 -0.25744 2.27979 -19.37228 -6.90033 -4.25423 -2.91464 48.85686 2.03083 -2.0156 -25.23146 -6.78097 3.55987 2.49244
0.00142 0.00027 0.00059 178.88789 -40.33531 -2.24294 46.49435 2.72031 -5.82947 12.23009 0.6777 -0.83593 12.12626 -13.80821 18.35186 34.92311 84.34731 2.28169 -1.43217 26.62476 7.16143 -23.20382 39.62442 -81.75817 -2.15582 0.33285 45.11309 -0.34588 1.71256 -19.37661 -6.87612 -4.1835 -2.86963 48.85164 2.12249 -1.65375 -25.23925 -6.77559 3.5288 2.47338
0.00149 0.00028 0.00049 178.82974 -40.32925 -2.2466 46.47602 2.71526 -5.65328 12.11528 0.7358 -0.83592 11.69081 -13.75152 18.52444 34.96781 84.42366 2.45008 -1.4288 26.10959 7.10604 -23.36114 40.59971 -81.83395 -2.00432 0.37573 45.12122 -0.43426 1.14563 -19.38094 -6.85192 -4.11283 -2.82467 48.84644 2.21409 -1.29224 -25.24704 -6.77021 3.49775 2.45434
0.00155 0.0003 0.0004 178.77165 -40.32318 -2.25024 46.45776 2.71018 -5.47671 12.00062 0.7937 -0.83591 11.25574 -13.69477 18.69803 35.01397 84.5003 2.61918 -1.42546 25.59615 7.04963 -23.51887 41.5777 -81.90983 -1.85252 0.41887 45.12937 -0.52285 0.57742 -19.38529 -6.82767 -4.04203 -2.77961 48.84126 2.30584 -0.93019 -25.25487 -6.76483 3.46666 2.43525
0.00161 0.00031 0.0003 178.71282 -40.31716 -2.25394 46.43894 2.70527 -5.30104 11.8845 0.85295 -0.8359 10.81633 -13.63804 18.86696 35.05269 84.57616 2.7858 -1.42185 25.07047 6.99817 -23.6753 42.54734 -81.98612 -1.70111 0.46082 45.13754 -0.61098 0.01231 -19.38956 -6.80355 -3.97144 -2.73472 48.83596 2.3973 -0.5688 -25.26258 -6.75945 3.43564 2.41625
0.00167 0.00032 0.00021 178.65562 -40.31103 -2.25754 46.42135 2.69997 -5.12373 11.7715 0.90941 -0.8359 10.3861 -13.58129 19.04551 35.10663 84.65335 2.95715 -1.41886 24.57045 6.9367 -23.83431 43.53302 -82.06115 -1.54924 0.50521 45.14561 -0.69989 -0.55841 -19.39398 -6.77918 -3.90053 -2.68956 48.83089 2.48927 -0.20643 -25.27051 -6.75406 3.4045 2.39709
0.00173 0.00034 0.00011 178.59679 -40.30503 -2.26121 46.40249 2.69514 -4.948 11.65551 0.96846 -0.83589 9.94744 -13.52463 19.21442 35.14598 84.72959 3.1243 -1.41518 24.04593 6.88465 -23.99067 44.50336 -82.13796 -1.39751 0.54721 45.15385 -0.78814 -1.12395 -19.39826 -6.75505 -3.82988 -2.64463 48.82566 2.5807 0.15494 -25.27824 -6.74869 3.3735 2.37809
0.00179 0.00035 2e-05 178.53642 -40.29906 -2.26505 46.38259 2.69045 -4.77385 11.53619 1.03065 -0.83587 9.49793 -13.46775 19.37461 35.16954 84.80362 3.28571 -1.41111 23.4941 6.84348 -24.14496 45.45757 -82.21458 -1.24697 0.58682 45.16201 -0.8754 -1.68348 -19.40239 -6.73116 -3.75964 -2.60003 48.82002 2.6718 0.51568 -25.28571 -6.74329 3.3425 2.35922
0.00185 0.00037 -8e-05 178.48626 -40.29255 -2.26818 46.3702 2.68366 -4.58954 11.43699 1.07471 -0.8359 9.10919 -13.41115 19.59417 35.29008 84.8872 3.47835 -1.41064 23.10727 6.73779 -24.31465 46.51249 -82.28519 -1.09266 0.64177 45.16978 -0.96781 -2.27857 -19.40745 -6.70575 -3.68731 -2.55365 48.8161 2.76581 0.88186 -25.29462 -6.73793 3.31098 2.33939
0.00191 0.00038 -0.00016 178.41372 -40.28741 -2.27261 46.34101 2.68211 -4.42738 11.29481 1.15706 -0.83583 8.59345 -13.35459 19.68262 35.2022 84.95267 3.60622 -1.40175 22.36762 6.76938 -24.44962 47.3498 -82.373 -0.94437 0.66334 45.17889 -1.04969 -2.79796 -19.41051 -6.68362 -3.61924 -2.51098 48.80894 2.853 1.23532 -25.30055 -6.73257 3.2809 2.32176
